<svg xmlns="http://www.w3.org/2000/svg" version="1.1" xmlns:xlink="http://www.w3.org/1999/xlink" xmlns:svgjs="http://svgjs.dev/svgjs" width="2000" height="227" viewBox="0 0 2000 227"><g transform="matrix(1,0,0,1,-1.2121212121212466,-0.19856177603747938)"><svg viewBox="0 0 396 45" data-background-color="#363740" preserveAspectRatio="xMidYMid meet" height="227" width="2000" xmlns="http://www.w3.org/2000/svg" xmlns:xlink="http://www.w3.org/1999/xlink"><g id="tight-bounds" transform="matrix(1,0,0,1,0.2400000000000091,0.03936246661535847)"><svg viewBox="0 0 395.52 44.92127506676926" height="44.92127506676926" width="395.52"><g><svg viewBox="0 0 470.73876548121774 53.464263675093974" height="44.92127506676926" width="395.52"><g><rect width="3.4887572165991947" height="46.42338379892386" x="62.59713596985627" y="3.520439938085058" fill="#fefefe" opacity="1" stroke-width="0" stroke="transparent" fill-opacity="1" class="rect-s$-0" data-fill-palette-color="primary" rx="1%" id="s$-0" data-palette-color="#fefefe"></rect></g><g transform="matrix(1,0,0,1,75.21876548121776,7.389055254662047)"><svg viewBox="0 0 395.52 38.68615316576988" height="38.68615316576988" width="395.52"><g id="textblocktransform"><svg viewBox="0 0 395.52 38.68615316576988" height="38.68615316576988" width="395.52" id="textblock"><g><svg viewBox="0 0 395.52 38.68615316576988" height="38.68615316576988" width="395.52"><g transform="matrix(1,0,0,1,0,0)"><svg width="395.52" viewBox="2.37 -32.4 331.2 32.4" height="38.68615316576988" data-palette-color="#fefefe"><path d="M27.22 0L22.88 0 22.88-12.13 8.86-12.13 2.37-18.63 2.37-25.93 8.86-32.4 12.52-32.4 12.52-20.9 27.42-20.9 33.69-14.4 33.69-6.47 27.22 0ZM22.88-26.56L14.23-26.56 14.23-32.4 27.2-32.4 32.81-26.76 32.81-23.32 22.88-23.32 22.88-26.56ZM2.37-6.47L2.37-9.72 13.16-9.72 13.16-5.86 21.17-5.86 21.17 0 7.81 0 2.37-6.47ZM59.35-19.65L59.35-32.4 70.24-32.4 70.24 0 59.42 0 59.42-13.16 51.41-13.16 51.41-19.65 59.35-19.65ZM49.7-32.4L49.7 0 38.91 0 38.91-32.4 49.7-32.4ZM98.55 0L97.19-3.54 86.59-3.54 88.84-9.96 94.7-9.96 86.03-32.4 96.55-32.4 109.47 0 98.55 0ZM89.64-18.07L83.71 0 73.29 0 84.86-30.93 89.64-18.07ZM132.98-19.65L132.98-32.4 143.86-32.4 143.86 0 133.05 0 133.05-13.16 125.04-13.16 125.04-19.65 132.98-19.65ZM123.33-32.4L123.33 0 112.54 0 112.54-32.4 123.33-32.4ZM160.95-32.4L180.65 0 169.18 0 149.55-32.4 160.95-32.4ZM158.95 0L149.55 0 149.55-29.32 158.95-13.92 158.95 0ZM171.25-32.4L180.65-32.4 180.65-3.08 171.25-18.55 171.25-32.4ZM209 0L207.63-3.54 197.03-3.54 199.28-9.96 205.14-9.96 196.47-32.4 206.99-32.4 219.91 0 209 0ZM200.09-18.07L194.15 0 183.73 0 195.3-30.93 200.09-18.07ZM230.23-32.4L234.99-14.6 238.24-28.2 242.47-12.82 238.97 0 229.18 0 219.49-32.4 230.23-32.4ZM249.59-32.4L257.9 0 247.59 0 238.71-32.4 249.59-32.4ZM254.65-18.95L257.99-32.4 267.83-32.4 259.04-1.68 254.65-18.95ZM292.68 0L291.32-3.54 280.72-3.54 282.97-9.96 288.83-9.96 280.16-32.4 290.68-32.4 303.6 0 292.68 0ZM283.77-18.07L277.84 0 267.41 0 278.99-30.93 283.77-18.07ZM305.08 0L305.08-6.05 326.25-32.4 333.57-32.4 333.57-26.12 312.19 0 305.08 0ZM333.13-7.1L333.13 0 314.36 0 320.51-7.1 333.13-7.1ZM305.74-25.32L305.74-32.4 324.13-32.4 318-25.32 305.74-25.32Z" opacity="1" transform="matrix(1,0,0,1,0,0)" fill="#fefefe" class="undefined-text-0" data-fill-palette-color="primary" id="text-0"></path></svg></g></svg></g></svg></g></svg></g><g><svg viewBox="0 0 53.46426367509398 53.464263675093974" height="53.464263675093974" width="53.46426367509398"><g><svg xmlns="http://www.w3.org/2000/svg" xmlns:xlink="http://www.w3.org/1999/xlink" version="1.1" x="0" y="0" viewBox="0.5 0.5 47 46.99999999999999" style="enable-background:new 0 0 48 48;" xml:space="preserve" height="53.464263675093974" width="53.46426367509398" class="icon-icon-0" data-fill-palette-color="accent" id="icon-0"><g fill="#fefefe" data-fill-palette-color="accent"><path d="M16.8 5.6c0-0.2 0.1-0.3 0.3-0.3h13.8c0.2 0 0.3 0.1 0.3 0.3v3.3H36V5.6c0-2.8-2.3-5.1-5.1-5.1H17.1c-2.8 0-5.1 2.3-5.1 5.1v3.3h4.8V5.6z" fill="#fefefe" data-fill-palette-color="accent"></path><path d="M45.1 12.7H2.9c-1.3 0-2.4 1.1-2.4 2.4v8h15.7c1.3 0 2.4 1.1 2.4 2.4 0 0.1 0 0.2 0 0.3 0 0.1 0 0.2 0 0.3 0 1 1.2 2.2 3 2.7v-0.1c0-1.3 1.1-2.4 2.4-2.4s2.4 1.1 2.4 2.4v0.1c1.8-0.5 3-1.7 3-2.7 0-0.1 0-0.2 0-0.3 0-0.1 0-0.2 0-0.3 0-1.3 1.1-2.4 2.4-2.4h15.7v-8C47.5 13.8 46.4 12.7 45.1 12.7z" fill="#fefefe" data-fill-palette-color="accent"></path><path d="M26.4 33.8v0.5c0 1.3-1.1 2.4-2.4 2.4s-2.4-1.1-2.4-2.4v-0.5c-3.8-0.7-6.7-2.9-7.6-5.8H0.5v17.1c0 1.3 1.1 2.4 2.4 2.4h42.2c1.3 0 2.4-1.1 2.4-2.4V28H34C33.1 30.9 30.2 33.1 26.4 33.8z" fill="#fefefe" data-fill-palette-color="accent"></path></g></svg></g></svg></g></svg></g><defs></defs></svg><rect width="395.52" height="44.92127506676926" fill="none" stroke="none" visibility="hidden"></rect></g></svg></g></svg>